<svg width="135" height="60" viewBox="0 0 135 60" fill="none" xmlns="http://www.w3.org/2000/svg">
<path d="M3.32614 8.96093L0.670664 49.7088C0.315939 55.152 4.84619 59.6568 10.2873 59.2716L50.6357 56.4145C55.3478 56.0809 59 52.1609 59 47.437V11.9182C59 7.16707 55.3069 3.23432 50.5652 2.93593L12.8723 0.563977C7.9194 0.252298 3.64887 4.00871 3.32614 8.96093Z" fill="#B3ED73"/>
<path d="M30.918 26.2495H22.6953V23.3784C22.6953 21.5685 22.6172 20.4357 22.4609 19.98C22.3047 19.5243 21.9336 19.2964 21.3477 19.2964C20.8398 19.2964 20.4948 19.4917 20.3125 19.8823C20.1302 20.2729 20.0391 21.2756 20.0391 22.8901V38.0659C20.0391 39.4852 20.1302 40.4227 20.3125 40.8784C20.4948 41.3211 20.8594 41.5425 21.4062 41.5425C22.0052 41.5425 22.4089 41.2886 22.6172 40.7808C22.8385 40.2729 22.9492 39.2834 22.9492 37.812V34.062H21.2891V29.2573H30.918V46.23H25.7422L24.9805 43.9644C24.4206 44.9409 23.7109 45.6766 22.8516 46.1714C22.0052 46.6532 21.0026 46.894 19.8438 46.894C18.4635 46.894 17.168 46.562 15.957 45.8979C14.7591 45.2209 13.8477 44.3875 13.2227 43.3979C12.5977 42.4084 12.207 41.3732 12.0508 40.2925C11.8945 39.1987 11.8164 37.5646 11.8164 35.3901V25.9956C11.8164 22.9748 11.9792 20.7808 12.3047 19.4136C12.6302 18.0464 13.5612 16.7964 15.0977 15.6636C16.6471 14.5177 18.6458 13.9448 21.0938 13.9448C23.5026 13.9448 25.5013 14.4396 27.0898 15.4292C28.6784 16.4188 29.7135 17.5972 30.1953 18.9644C30.6771 20.3185 30.918 22.2912 30.918 24.8823V26.2495ZM51.7383 29.4136V35.7612C51.7383 38.092 51.6211 39.8042 51.3867 40.8979C51.1523 41.9787 50.651 42.9943 49.8828 43.9448C49.1146 44.8823 48.125 45.5789 46.9141 46.0347C45.7161 46.4774 44.3359 46.6987 42.7734 46.6987C41.0286 46.6987 39.5508 46.5099 38.3398 46.1323C37.1289 45.7417 36.1849 45.1623 35.5078 44.394C34.8438 43.6128 34.3685 42.6753 34.082 41.5815C33.7956 40.4748 33.6523 38.8211 33.6523 36.6206V29.98C33.6523 27.5711 33.9128 25.6896 34.4336 24.3354C34.9544 22.9813 35.8919 21.894 37.2461 21.0737C38.6003 20.2534 40.332 19.8433 42.4414 19.8433C44.2122 19.8433 45.7292 20.1102 46.9922 20.644C48.2682 21.1649 49.2513 21.8485 49.9414 22.6948C50.6315 23.5412 51.1003 24.4136 51.3477 25.312C51.6081 26.2104 51.7383 27.5776 51.7383 29.4136ZM43.8477 27.4604C43.8477 26.1323 43.776 25.299 43.6328 24.9604C43.4896 24.6089 43.1836 24.4331 42.7148 24.4331C42.2461 24.4331 41.9336 24.6089 41.7773 24.9604C41.6211 25.299 41.543 26.1323 41.543 27.4604V39.1597C41.543 40.3836 41.6211 41.1844 41.7773 41.562C41.9336 41.9266 42.2396 42.1089 42.6953 42.1089C43.1641 42.1089 43.4701 41.9396 43.6133 41.6011C43.7695 41.2625 43.8477 40.5334 43.8477 39.4136V27.4604Z" fill="#191921"/>
<path d="M73.7891 28.3979H65.5664V22.8901C65.5664 21.2886 65.4753 20.2925 65.293 19.9019C65.1237 19.4982 64.7396 19.2964 64.1406 19.2964C63.4635 19.2964 63.0339 19.5373 62.8516 20.019C62.6693 20.5008 62.5781 21.5425 62.5781 23.144V37.8315C62.5781 39.368 62.6693 40.3706 62.8516 40.8394C63.0339 41.3081 63.444 41.5425 64.082 41.5425C64.694 41.5425 65.0911 41.3081 65.2734 40.8394C65.4688 40.3706 65.5664 39.2703 65.5664 37.5386V33.5737H73.7891V34.8042C73.7891 38.0724 73.5547 40.3901 73.0859 41.7573C72.6302 43.1245 71.6081 44.3224 70.0195 45.3511C68.444 46.3797 66.4974 46.894 64.1797 46.894C61.7708 46.894 59.7852 46.4578 58.2227 45.5854C56.6602 44.7131 55.625 43.5086 55.1172 41.9722C54.6094 40.4227 54.3555 38.0985 54.3555 34.9995V25.7612C54.3555 23.4826 54.4336 21.7769 54.5898 20.644C54.7461 19.4982 55.2083 18.3979 55.9766 17.3433C56.7578 16.2886 57.832 15.4618 59.1992 14.8628C60.5794 14.2508 62.1615 13.9448 63.9453 13.9448C66.3672 13.9448 68.3659 14.4136 69.9414 15.3511C71.5169 16.2886 72.5521 17.4604 73.0469 18.8667C73.5417 20.2599 73.7891 22.4344 73.7891 25.3901V28.3979ZM95.5273 33.1245C95.5273 36.3016 95.4492 38.5542 95.293 39.8823C95.1497 41.1974 94.681 42.4019 93.8867 43.4956C93.1055 44.5894 92.0443 45.4292 90.7031 46.0151C89.362 46.6011 87.7995 46.894 86.0156 46.894C84.3229 46.894 82.7995 46.6206 81.4453 46.0737C80.1042 45.5138 79.0234 44.6805 78.2031 43.5737C77.3828 42.467 76.8945 41.2625 76.7383 39.9604C76.582 38.6584 76.5039 36.3797 76.5039 33.1245V27.7144C76.5039 24.5373 76.5755 22.2912 76.7188 20.9761C76.875 19.6479 77.3438 18.437 78.125 17.3433C78.9193 16.2495 79.987 15.4097 81.3281 14.8237C82.6693 14.2378 84.2318 13.9448 86.0156 13.9448C87.7083 13.9448 89.2253 14.2248 90.5664 14.7847C91.9206 15.3315 93.0078 16.1584 93.8281 17.2651C94.6484 18.3719 95.1367 19.5763 95.293 20.8784C95.4492 22.1805 95.5273 24.4591 95.5273 27.7144V33.1245ZM87.3047 22.7339C87.3047 21.2625 87.2201 20.325 87.0508 19.9214C86.8945 19.5047 86.5625 19.2964 86.0547 19.2964C85.625 19.2964 85.293 19.4657 85.0586 19.8042C84.8372 20.1297 84.7266 21.1063 84.7266 22.7339V37.4995C84.7266 39.3354 84.7982 40.4683 84.9414 40.8979C85.0977 41.3276 85.4492 41.5425 85.9961 41.5425C86.556 41.5425 86.9141 41.2951 87.0703 40.8003C87.2266 40.3055 87.3047 39.1271 87.3047 37.2651V22.7339ZM116.973 14.6089V46.23H109.766L105.488 31.855V46.23H98.6133V14.6089H105.488L110.098 28.8472V14.6089H116.973ZM120.293 14.6089H134.219V20.937H128.516V26.9331H133.594V32.9487H128.516V46.23H120.293V14.6089Z" fill="#8553F9"/>
</svg>
